<?xml version="1.0" standalone="no"?>
<!DOCTYPE svg PUBLIC "-//W3C//DTD SVG 20010904//EN"
 "http://www.w3.org/TR/2001/REC-SVG-20010904/DTD/svg10.dtd">
<svg version="1.0" xmlns="http://www.w3.org/2000/svg"
 width="447.000000pt" height="447.000000pt" viewBox="0 0 447.000000 447.000000"
 preserveAspectRatio="xMidYMid meet">

<g transform="translate(0.000000,447.000000) scale(0.100000,-0.100000)"
fill="#000000" stroke="none">
<path d="M2050 4109 c-884 -91 -1594 -750 -1739 -1614 -47 -276 -47 -290 -22
-540 37 -370 194 -745 433 -1033 87 -103 189 -208 266 -269 26 -21 53 -44 60
-51 7 -6 57 -41 110 -76 458 -301 1010 -391 1576 -256 385 92 750 326 1008
647 289 358 430 725 445 1163 11 342 -48 637 -187 925 -152 316 -409 608 -700
797 -360 234 -831 350 -1250 307z m180 -714 c106 -16 176 -35 264 -72 85 -35
323 -165 449 -245 60 -37 112 -68 115 -68 4 1 27 27 52 60 59 76 77 86 125 69
37 -14 183 -128 198 -156 14 -24 -1 -75 -36 -125 -17 -25 -51 -73 -75 -107
-23 -34 -53 -68 -65 -76 -33 -21 -84 -4 -180 62 -268 183 -650 284 -925 244
-269 -39 -504 -192 -609 -396 -111 -217 -141 -458 -84 -680 25 -97 106 -264
162 -335 70 -89 210 -166 404 -222 72 -21 100 -23 280 -23 125 0 223 5 260 13
143 31 476 181 568 256 28 23 60 45 70 49 30 11 68 -19 132 -105 102 -137 124
-172 125 -196 0 -32 -67 -100 -141 -145 -97 -57 -127 -50 -200 49 -22 31 -47
58 -55 61 -7 3 -44 -17 -81 -45 -191 -142 -420 -268 -538 -297 -166 -41 -448
-58 -595 -35 -278 44 -479 146 -628 318 -80 94 -131 182 -192 332 -93 229
-120 356 -120 555 0 191 28 335 95 503 63 155 187 345 291 443 150 142 367
252 590 298 163 34 214 36 344 16z"/>
<path d="M2431 3194 c-12 -15 -21 -35 -21 -45 0 -28 36 -59 68 -59 57 0 83 69
42 110 -28 28 -64 25 -89 -6z"/>
<path d="M1629 3101 c-60 -61 -24 -151 61 -151 55 0 90 34 90 87 -1 86 -91
124 -151 64z"/>
<path d="M1099 2273 c-80 -49 -79 -179 1 -227 110 -64 243 61 185 174 -34 66
-124 92 -186 53z"/>
<path d="M1629 1321 c-60 -61 -23 -156 61 -156 53 0 90 38 90 91 0 47 -45 94
-90 94 -22 0 -41 -9 -61 -29z"/>
<path d="M2430 1190 c-27 -27 -25 -56 5 -85 29 -30 58 -32 85 -5 24 24 26 57
4 88 -19 28 -67 29 -94 2z"/>
</g>
</svg>
